<mxfile host="c57288b8-3822-4b92-bd09-169da925ffd0" modified="2020-09-02T04:49:38.858Z" agent="5.0 (Windows NT 10.0; Win64; x64) AppleWebKit/537.36 (KHTML, like Gecko) Code/1.47.3 Chrome/78.0.3904.130 Electron/7.3.2 Safari/537.36" etag="McE3sIeAa3tbkXxSy-aM" version="13.1.3">
    <diagram id="6hGFLwfOUW9BJ-s0fimq" name="Page-1">
        <mxGraphModel dx="1425" dy="1178" grid="1" gridSize="10" guides="1" tooltips="1" connect="1" arrows="1" fold="1" page="1" pageScale="1" pageWidth="600" pageHeight="250" background="#ffffff" math="0" shadow="0">
            <root>
                <mxCell id="0"/>
                <mxCell id="1" parent="0"/>
                <mxCell id="23" value="" style="rounded=0;whiteSpace=wrap;html=1;" parent="1" vertex="1">
                    <mxGeometry width="600" height="250" as="geometry"/>
                </mxCell>
                <mxCell id="2" value="ユーザ" style="shape=umlActor;verticalLabelPosition=bottom;labelBackgroundColor=#ffffff;verticalAlign=top;html=1;outlineConnect=0;" parent="1" vertex="1">
                    <mxGeometry x="30" y="22" width="30" height="60" as="geometry"/>
                </mxCell>
                <mxCell id="9" value="" style="fontColor=#0066CC;verticalAlign=top;verticalLabelPosition=bottom;labelPosition=center;align=center;html=1;outlineConnect=0;fillColor=#CCCCCC;strokeColor=#6881B3;gradientColor=none;gradientDirection=north;strokeWidth=2;shape=mxgraph.networks.pc;" parent="1" vertex="1">
                    <mxGeometry x="190" y="22" width="100" height="70" as="geometry"/>
                </mxCell>
                <mxCell id="10" value="" style="shape=flexArrow;endArrow=classic;html=1;" parent="1" edge="1">
                    <mxGeometry width="50" height="50" relative="1" as="geometry">
                        <mxPoint x="105" y="51.499999999999986" as="sourcePoint"/>
                        <mxPoint x="155" y="51.499999999999986" as="targetPoint"/>
                    </mxGeometry>
                </mxCell>
                <mxCell id="11" value="手作業で&lt;br&gt;勤怠入力" style="text;html=1;align=center;verticalAlign=middle;resizable=0;points=[];autosize=1;" parent="1" vertex="1">
                    <mxGeometry x="100" y="70" width="60" height="30" as="geometry"/>
                </mxCell>
                <mxCell id="12" value="" style="strokeColor=#dddddd;shadow=1;strokeWidth=1;rounded=1;absoluteArcSize=1;arcSize=2;" parent="1" vertex="1">
                    <mxGeometry x="190" y="132" width="170" height="60" as="geometry"/>
                </mxCell>
                <mxCell id="13" value="&lt;font style=&quot;font-size: 13px&quot; color=&quot;#000000&quot;&gt;Web打刻&lt;br&gt;自動入力システム&lt;/font&gt;" style="dashed=0;connectable=0;html=1;fillColor=#5184F3;strokeColor=none;shape=mxgraph.gcp2.hexIcon;prIcon=container_optimized_os;part=1;labelPosition=right;verticalLabelPosition=middle;align=left;verticalAlign=middle;spacingLeft=5;fontColor=#999999;fontSize=12;" parent="12" vertex="1">
                    <mxGeometry y="0.5" width="44" height="39" relative="1" as="geometry">
                        <mxPoint x="5" y="-19.5" as="offset"/>
                    </mxGeometry>
                </mxCell>
                <mxCell id="14" value="" style="shape=image;verticalLabelPosition=bottom;labelBackgroundColor=#ffffff;verticalAlign=top;aspect=fixed;imageAspect=0;image=data:image/png,iVBORw0KGgoAAAANSUhEUgAAADAAAAAwCAYAAABXAvmHAAAACXBIWXMAAAsTAAALEwEAmpwYAAAJ/ElEQVRogeWafVCVVR7HP+d5QATvFQu8EvJovAQ2Zb6kqWwoOlMYCOmm4Vt2SSfXzB3cVbctq2XcmlnXt1l2sPKN0i3LaX0LR2vdRG3VgEpxRzMhBUERSuFeVOg+z9k/Llze7uVeGJqdnf3OPH/c8/ud3/l+z3PuOb/zuxf+xyF+hpgLgAgPtivA5p9hzJ6DUNQqQLZ/gvoPru8dbNnY0+P59XA8kzR0y7C5q4lLW97eFpS3ODIO6APU99SASk8FakIsgCksxq1RSl1r9ukpdEVAEmDx4tOpAEfDbQveBViAyb6S8lVAOkIcEIpaDEzw4KMBT4LANCDarYPjdp0JmAoM9BBjolDUYoTIA2b5QswXAekI8X5obLwwhw8JQYh/Aiub+irAbIR6CrgMYmZoXLyhBgS5DXR39ChAzATKhVC/AGbg3AkV4HUQh01hMaEhseMEQuwAZnsj520bTUeI9/sPSRAJLx8QQlH5JjeTks/eRgiRjxBh0jDi+g0erkdOylAjxjxF4N2eJteJ2z9cofzkLr7/PFevLTujCsXvnJR6DVImRE7MYORzf0UiOfZmsqw+f0wi5Tzgb90R0Ia8X0Afl6H8xC4KNj6n97FEMXTWG2r4w1O8zIN7VBbuo3jnq7q96qIY9fw7yuCEOS6bo6HeKeLcMUDOA3Z0RcBkhMgLiR0nJqz8tA35ZjTUXqdX31CEaLsKVaOBgKoCjNpyfrpZCYB/v3CUYI2GAaPRlYA2/lIa3Llx1e2bczTUc/SPSbLm238BcgpwoL2Pp3PgKyGUmkbbD6EC4VZkQHDLhiSAwEt5lOXn8mX+Qex2u9ugJpOJRyZMZtAEK7fvTUECQigel51QVBrrbxpCUa5LQz/l1seDAICJIA5HTrSK0Yu2enQKqimk+L3fUHTyGJqmkZaWRnJyMtHR0YSHhwNQWVlJSUkJBw4cYN++fZSXlzNq3HgefGYtt0JHeYxdtOlXlPzjHR0pE4HjXRUA8DrwhzFLdtB6fTaj19dv8eGaX2OxWMjKysJqtaKqaqcBdV0nNzeX1157jerqatKXZ9M4fGEHv/ITuzix/mmAV4A3vfD0CAUhjqoBQXrqW1fk0x9J1zNt/jIJyLS0NFlXVye7irq6OpmamioBOW3+sjaxn9xUJf16mxxCiCN4mWRv54AUQg01DYiRve+6x9XY6+u32L1lDUuWLGH37t2YzeYuz4zZbGbPnj3OGFvW0Oubt1vi9w2ljyUKhAjzJsAbZgDy0RV7XbNjzSmQ/v7+Mi0tTRqG0eWZbw9d12Vqaqr09/eX1pwC1ziP/m5fcybb6YncqToh1C/6ag+MSVpzWm12vrhuPNfKSzl37ly3Zt4dbDYbQ4YMIXxwDNFL85FN7Z8uH6HfLCsuQupjPPXtbAkNlFIfFznR6vpWBl7Ko+jkMbKysnwin5iYSGJiolc/s9lMVlYWhSeOEngpz9UeOdGqIvXReL4gdRBgAkYCM4E1IIQ2dobLWJafi6ZpWK1Wr6S6ioyMDDRNo+zou662iLHTwXkO/bmJ08gmjh0ELGi6SdmAIuCD5sQsMMQpXjUa+DL/IGlpaV63yu5AVVVSU1MpyD+IajQCEHj3QELj4o2mBPCDJm62Jq4LoOUkjpCGbhk6603M4bGYwu7DHBaDGhDkekMBVQXY7XaSk5N7nHwzUlJSyMnJoff1AurDfgHApFXHFb3hFvaqEuzXLmK/dpHTO1ZYaFpWbVKJ+6f93mNwo7YcgOho97l+TyAqKgoA/WY5hLW0qwFBBA8aSvCgoQCc3rHCZfP5RtacmDWnB77CU17kDgMHOnMiR22lz316+k7cBgkJCRQVFbF06dKfbQyfqxL+/VoSs7i4OJ/6rFq1CrvdzoYNGwBYv359p/4VFRVOUsHhOHzk1UbA+b2rMYXFYAqLaf4Su2xKsAZASUmJzwJak/ZFRGlpKQBqP61Nu95wC9vVC9gqv8V29YLbvguEol6jXTEq5L6xevPRPmvnHWkymeTixYu7lTJkZmZKQGZmZnr0eeGFF6TZbJazdja4UoqQ2HgHiDa8mrgucCfEBIwA0nHuu3JKzmVXsEkp06WmadLhcPS4CIfDITVNk5OmzHCNN2VjmWwi/0ETpxG0O8g6gwYYw+etbUnkVn8iAbl58+ZuCWgt4uDBg23aN23aJAFpXf2Ja7zhz66TgIHnMoyXVFWIk8ERDzyctLbYr9n54rrxXC0r4fz5891O5g4dOkRSUpLrs6dk7tCyhxy15WcLkDLeU6zOt1Ep/1Jbftavsmi/8yMwdN46qqurmTt3LoZhdEtAa/KGYTBnzhyqq6t58Jm1LvKVhfuoLSv2Q8rszmJ5S2r+LYQys7bsbL/oxxYqQgh+CgpnWLSFXZvXcuPGDZKSkhDu7/1eYRgGmZmZbN++ndkvbeROVCrgrFScWP+0o7GupgTkInDp6gCvB5lEVtVXlSgNtdddbY3DFzJt/jKys7OZOnUqNputy+RtNhtTp04lOzubX85fTuPw5122OzeuYr92UZHIH/GyzL29gZWA9ZEX3xUhsePadox5nBExYex9L5tt27YRHBzMsGHDUJTO50TXdbZu3cr06dM5c+YMs1/KQT7aNgfzD+xLn/6DRcWpv0cA/sBhT/E6U5eIEIcjEzOU0Yu2eHQKqink7PbfUnjiKJqmkZqaSkpKClFRUa7cpqKigtLSUvLy8ti/f7/PZZUvczK4dCRXAk8Ah7oiwCIUtdgUFhP6+J++UjwVa1sHCbyUR9nRdynIP+hxSZnNZkZPmMyg8c+6CludwdFQz2crRhr2qpKb0tCHAh2yPE+50AgpjdBe5hAhPQxz+8cKet91D0IoSODWvSmE3pvClLkN9L5eiH6z3JVV+gWHo/bTuGMZha4EcKtVHCkNGutq2lT6WqOXOQR59bu7gFHAvvb2bhV3Lx/bQeHbzxumsPvk0Jmr1PBRaZ2E8QxncXelo/7692L0oq2qNq7l+uos7j5hVJ87LkBagffcxehSeR3gqy0vculILghxVAi1vzQc9wcPekiPnGhVI8ZOJyhE6zTg7R+ucOXUx5R+vs1Re/m0nxDKeYmsQsoJ0Y8tZLh1A9LQfSLvK9IRQg+JizfM98TqCKEDr+LcggUwXQj1OGCAkKFx8XrrKlvrp1ViZiDESZwX9eY4LyOE3jfiAUdoXLwOwgDmeSPn6wmUjhDvC6HUSENPB4648RmIs5Ix86ntdtp/8fWGW3z8TB+AncBynL8Zt0eCUNSPpGEM8HXmfb2RfYiUyU07gTvyABXAXpDYrl3sYGzVtgf35AGOOceQU/Bx2XTlSnkIuO7F5wKA/dp3HQz2FgHubyQtqMHNDxme0NN34gsAtsqOHLsg4L8LT381oOUm1aPo6b8aIA39FTzUMqWhe1r7/7/4D1Tfc6iuFFk1AAAAAElFTkSuQmCC;" parent="12" vertex="1">
                    <mxGeometry x="4" y="5.75" width="48.5" height="48.5" as="geometry"/>
                </mxCell>
                <mxCell id="15" value="ユーザ" style="shape=umlActor;verticalLabelPosition=bottom;labelBackgroundColor=#ffffff;verticalAlign=top;html=1;outlineConnect=0;" parent="1" vertex="1">
                    <mxGeometry x="30" y="132" width="30" height="60" as="geometry"/>
                </mxCell>
                <mxCell id="16" value="" style="fontColor=#0066CC;verticalAlign=top;verticalLabelPosition=bottom;labelPosition=center;align=center;html=1;outlineConnect=0;fillColor=#CCCCCC;strokeColor=#6881B3;gradientColor=none;gradientDirection=north;strokeWidth=2;shape=mxgraph.networks.pc;" parent="1" vertex="1">
                    <mxGeometry x="440" y="132" width="100" height="70" as="geometry"/>
                </mxCell>
                <mxCell id="17" value="" style="shape=flexArrow;endArrow=classic;html=1;" parent="1" edge="1">
                    <mxGeometry width="50" height="50" relative="1" as="geometry">
                        <mxPoint x="105" y="161.5" as="sourcePoint"/>
                        <mxPoint x="155" y="161.5" as="targetPoint"/>
                    </mxGeometry>
                </mxCell>
                <mxCell id="19" value="システムが&lt;br&gt;自動で入力" style="text;html=1;align=center;verticalAlign=middle;resizable=0;points=[];autosize=1;" parent="1" vertex="1">
                    <mxGeometry x="360" y="202" width="80" height="30" as="geometry"/>
                </mxCell>
                <mxCell id="22" value="" style="shape=flexArrow;endArrow=classic;html=1;" parent="1" edge="1">
                    <mxGeometry width="50" height="50" relative="1" as="geometry">
                        <mxPoint x="375" y="161.49999999999994" as="sourcePoint"/>
                        <mxPoint x="425" y="161.49999999999994" as="targetPoint"/>
                    </mxGeometry>
                </mxCell>
                <mxCell id="24" value="COMPANY&lt;br&gt;HR" style="text;html=1;align=center;verticalAlign=middle;resizable=0;points=[];autosize=1;" parent="1" vertex="1">
                    <mxGeometry x="464" y="145" width="70" height="30" as="geometry"/>
                </mxCell>
                <mxCell id="25" value="COMPANY&lt;br&gt;HR" style="text;html=1;align=center;verticalAlign=middle;resizable=0;points=[];autosize=1;" parent="1" vertex="1">
                    <mxGeometry x="214" y="35" width="70" height="30" as="geometry"/>
                </mxCell>
                <mxCell id="26" value="繰り返し入力したい&lt;br&gt;勤怠情報を登録" style="text;html=1;align=center;verticalAlign=middle;resizable=0;points=[];autosize=1;" vertex="1" parent="1">
                    <mxGeometry x="70" y="192" width="120" height="30" as="geometry"/>
                </mxCell>
            </root>
        </mxGraphModel>
    </diagram>
</mxfile>